<svg width="61" height="62" viewBox="0 0 61 62" fill="none" xmlns="http://www.w3.org/2000/svg">
<rect x="1.47998" y="1.29999" width="59" height="59.5" rx="29.5" fill="#E7C873"/>
<rect x="1.47998" y="1.29999" width="59" height="59.5" rx="29.5" stroke="#E7C873"/>
<g clip-path="url(#clip0_2_19)">
<path d="M40.78 38.9966L35.8466 34.13C36.4689 33.3744 36.9578 32.5411 37.3133 31.63C37.6689 30.7188 37.8466 29.7522 37.8466 28.73C37.8466 27.2188 37.4689 25.8188 36.7133 24.53C35.9578 23.2411 34.9355 22.2188 33.6466 21.4633C32.3578 20.7077 30.9466 20.33 29.4133 20.33C27.88 20.33 26.4689 20.7077 25.18 21.4633C23.8911 22.2188 22.8689 23.2411 22.1133 24.53C21.3578 25.8188 20.98 27.23 20.98 28.7633C20.98 30.2966 21.3578 31.7077 22.1133 32.9966C22.8689 34.2855 23.8911 35.3077 25.18 36.0633C26.4689 36.8188 27.8689 37.1966 29.38 37.1966C30.4022 37.1966 31.3689 37.0188 32.28 36.6633C33.1911 36.3077 34.0244 35.8188 34.78 35.1966L39.6466 40.13C39.8244 40.2633 40.0133 40.33 40.2133 40.33C40.4133 40.33 40.5911 40.2522 40.7466 40.0966C40.9022 39.9411 40.98 39.7633 40.98 39.5633C40.98 39.3633 40.9133 39.1744 40.78 38.9966ZM22.5133 28.73C22.5133 27.4855 22.8244 26.3411 23.4466 25.2966C24.0689 24.2522 24.9022 23.4188 25.9466 22.7966C26.9911 22.1744 28.1355 21.8633 29.38 21.8633C30.6244 21.8633 31.7689 22.1744 32.8133 22.7966C33.8578 23.4188 34.6911 24.2522 35.3133 25.2966C35.9355 26.3411 36.2466 27.4855 36.2466 28.73C36.2466 29.9744 35.9355 31.1188 35.3133 32.1633C34.6911 33.2077 33.8578 34.0411 32.8133 34.6633C31.7689 35.2855 30.6244 35.5966 29.38 35.5966C28.1355 35.5966 26.9911 35.2855 25.9466 34.6633C24.9022 34.0411 24.0689 33.2077 23.4466 32.1633C22.8244 31.1188 22.5133 29.9744 22.5133 28.73Z" fill="#1A1A1A"/>
</g>
<defs>
<clipPath id="clip0_2_19">
<rect width="20" height="20" fill="white" transform="matrix(1 0 0 -1 20.98 40.33)"/>
</clipPath>
</defs>
</svg>
