<svg width="71" height="71" viewBox="0 0 71 71" fill="none" xmlns="http://www.w3.org/2000/svg">
<rect x="0.22998" y="0.890137" width="70" height="70" rx="35" fill="#1A1A1A" fill-opacity="0.17"/>
<rect x="0.72998" y="1.39014" width="69" height="69" rx="34.5" stroke="white" stroke-opacity="0.1"/>
<rect x="1.22998" y="1.89014" width="68" height="68" rx="34" fill="#1A1A1A" fill-opacity="0.11"/>
<path d="M29.2151 45.7904C29.7315 45.7896 30.2385 45.6522 30.6847 45.3922L42.7099 38.4358C43.1567 38.1778 43.5277 37.8068 43.7857 37.36C44.0436 36.9132 44.1795 36.4063 44.1795 35.8904C44.1795 35.3745 44.0436 34.8676 43.7857 34.4208C43.5277 33.974 43.1567 33.6029 42.7099 33.345L30.6847 26.3974C30.2378 26.1422 29.7319 26.0087 29.2173 26.0103C28.7027 26.0118 28.1975 26.1483 27.7522 26.4061C27.3069 26.664 26.937 27.0341 26.6795 27.4796C26.422 27.9251 26.2858 28.4304 26.2847 28.945V42.8358C26.2835 43.6156 26.5911 44.3641 27.1402 44.9178C27.6893 45.4714 28.4353 45.7852 29.2151 45.7904ZM27.8137 28.945C27.8118 28.6986 27.8757 28.4563 27.9987 28.2428C28.1216 28.0294 28.2993 27.8526 28.5133 27.7306C28.726 27.6067 28.9678 27.5415 29.214 27.5415C29.4602 27.5415 29.7019 27.6067 29.9147 27.7306L41.9465 34.6782C42.1584 34.8012 42.3342 34.9778 42.4565 35.1901C42.5787 35.4025 42.6431 35.6432 42.6431 35.8882C42.6431 36.1332 42.5787 36.3739 42.4565 36.5863C42.3342 36.7986 42.1584 36.9752 41.9465 37.0982L29.9147 44.0502C29.7016 44.173 29.46 44.2375 29.2141 44.2373C28.9682 44.2371 28.7267 44.1723 28.5138 44.0492C28.3009 43.9262 28.1241 43.7493 28.0012 43.5363C27.8783 43.3233 27.8137 43.0817 27.8137 42.8358V28.945Z" fill="white"/>
</svg>
