<svg width="200" height="57" viewBox="0 0 200 57" fill="none" xmlns="http://www.w3.org/2000/svg">
<g clip-path="url(#clip0_2_362)">
<g clip-path="url(#clip1_2_362)">
<g clip-path="url(#clip2_2_362)">
<path fill-rule="evenodd" clip-rule="evenodd" d="M24.4471 15.6592L24.4353 56.3013L28.7746 56.2892L28.7625 42.1027L36.4281 42.0906L36.416 56.2892H40.9578V1.15723L36.4039 4.17678L36.3983 37.8039L28.8102 37.7788L28.8162 8.17154L0 24.8403L0.0387793 47.689L4.59272 47.7014L4.59861 27.3683L24.4471 15.6592Z" fill="white"/>
<path fill-rule="evenodd" clip-rule="evenodd" d="M16.567 56.0994V25.2246L12.0856 27.8511L12.1802 51.9065L0.0686547 51.8114L0.00878906 56.0752L16.567 56.0994Z" fill="white"/>
<path d="M72.3921 33.2391V18.3066H76.0586V33.2391C76.0586 34.6556 75.7555 35.8622 75.1493 36.8586C74.5431 37.8551 73.717 38.6171 72.6708 39.1447C71.6246 39.6722 70.4367 39.936 69.107 39.936C67.7479 39.936 66.5404 39.7064 65.4845 39.2472C64.4383 38.7881 63.6171 38.0847 63.0206 37.1371C62.4242 36.1894 62.126 34.9878 62.126 33.5322H65.8218C65.8218 34.3723 65.9538 35.0513 66.2178 35.5691C66.4916 36.0771 66.8729 36.4483 67.3617 36.6828C67.8604 36.9075 68.4421 37.0198 69.107 37.0198C69.7425 37.0198 70.3047 36.8782 70.7936 36.5949C71.2922 36.3018 71.6833 35.8768 71.9668 35.32C72.2504 34.7533 72.3921 34.0597 72.3921 33.2391Z" fill="white"/>
<path d="M89.4926 35.906V23.7871H93.0417V39.6428H89.6979L89.4926 35.906ZM89.9912 32.6089L91.1791 32.5796C91.1791 33.6444 91.0618 34.6262 90.8272 35.525C90.5925 36.414 90.2307 37.1907 89.7419 37.855C89.253 38.5096 88.6273 39.0225 87.8646 39.3937C87.102 39.7552 86.1878 39.9359 85.1221 39.9359C84.3497 39.9359 83.6409 39.8235 82.9956 39.5988C82.3503 39.3741 81.793 39.0273 81.3237 38.5584C80.8641 38.0895 80.5073 37.4789 80.2531 36.7266C79.9988 35.9744 79.8717 35.0756 79.8717 34.0303V23.7871H83.4062V34.0596C83.4062 34.636 83.4747 35.1196 83.6115 35.5104C83.7484 35.8914 83.9342 36.1991 84.1688 36.4336C84.4035 36.668 84.6773 36.8341 84.9901 36.9318C85.303 37.0295 85.6354 37.0783 85.9874 37.0783C86.9945 37.0783 87.7864 36.883 88.3633 36.4922C88.9499 36.0916 89.3655 35.5543 89.6099 34.8802C89.8641 34.2062 89.9912 33.449 89.9912 32.6089Z" fill="white"/>
<path d="M105.566 35.3493C105.566 34.9976 105.478 34.6801 105.302 34.3968C105.126 34.1037 104.789 33.8399 104.29 33.6054C103.802 33.371 103.078 33.156 102.12 32.9607C101.279 32.775 100.507 32.5552 99.8027 32.3012C99.1085 32.0375 98.5121 31.72 98.0134 31.3487C97.5148 30.9775 97.1286 30.5379 96.8548 30.0299C96.5811 29.5218 96.4442 28.9357 96.4442 28.2714C96.4442 27.6266 96.586 27.016 96.8695 26.4396C97.153 25.8632 97.5588 25.3552 98.0868 24.9156C98.6147 24.476 99.2551 24.1292 100.008 23.8752C100.771 23.6211 101.621 23.4941 102.56 23.4941C103.89 23.4941 105.029 23.7188 105.977 24.1682C106.935 24.6079 107.668 25.2087 108.177 25.9707C108.685 26.7229 108.94 27.5729 108.94 28.5205H105.405C105.405 28.1004 105.297 27.7096 105.082 27.3482C104.877 26.9769 104.564 26.679 104.144 26.4543C103.723 26.2198 103.195 26.1026 102.56 26.1026C101.954 26.1026 101.45 26.2003 101.049 26.3956C100.658 26.5813 100.365 26.8255 100.169 27.1283C99.9836 27.4312 99.8907 27.7634 99.8907 28.1248C99.8907 28.3886 99.9396 28.6279 100.037 28.8429C100.145 29.048 100.321 29.2385 100.565 29.4144C100.81 29.5805 101.142 29.7368 101.563 29.8833C101.993 30.0299 102.531 30.1715 103.176 30.3083C104.388 30.5623 105.429 30.8896 106.3 31.2901C107.18 31.6809 107.854 32.1889 108.324 32.8141C108.793 33.4296 109.028 34.2111 109.028 35.1588C109.028 35.8622 108.876 36.5069 108.573 37.0931C108.28 37.6695 107.849 38.1726 107.282 38.6025C106.715 39.0225 106.036 39.3498 105.244 39.5843C104.462 39.8188 103.582 39.936 102.604 39.936C101.167 39.936 99.9493 39.682 98.9521 39.174C97.9548 38.6562 97.197 37.9968 96.6788 37.1957C96.1704 36.3848 95.9162 35.5447 95.9162 34.6752H99.3334C99.3725 35.3297 99.5534 35.8524 99.876 36.2432C100.208 36.6242 100.619 36.9026 101.108 37.0784C101.607 37.2445 102.12 37.3276 102.648 37.3276C103.283 37.3276 103.816 37.2445 104.246 37.0784C104.677 36.9026 105.004 36.6681 105.229 36.3751C105.454 36.0722 105.566 35.7303 105.566 35.3493Z" fill="white"/>
<path d="M119.396 23.7866V26.3657H110.45V23.7866H119.396ZM113.031 19.9033H116.566V35.2607C116.566 35.7492 116.634 36.1253 116.771 36.3891C116.918 36.6431 117.118 36.8141 117.372 36.902C117.627 36.9899 117.925 37.0339 118.267 37.0339C118.511 37.0339 118.746 37.0192 118.971 36.9899C119.196 36.9606 119.377 36.9313 119.514 36.902L119.528 39.5983C119.235 39.6863 118.893 39.7644 118.502 39.8328C118.12 39.9012 117.68 39.9354 117.182 39.9354C116.37 39.9354 115.652 39.7937 115.026 39.5104C114.4 39.2173 113.911 38.7435 113.559 38.089C113.207 37.4344 113.031 36.565 113.031 35.4806V19.9033Z" fill="white"/>
<path d="M136.585 27.2163V30.1324H125.248V27.2163H136.585ZM126.157 18.3066V39.6429H122.476V18.3066H126.157ZM139.415 18.3066V39.6429H135.749V18.3066H139.415Z" fill="white"/>
<path d="M142.774 31.8909V31.5539C142.774 30.4109 142.94 29.3509 143.272 28.3739C143.605 27.3872 144.084 26.5324 144.71 25.8095C145.345 25.0768 146.118 24.5102 147.027 24.1096C147.946 23.6993 148.982 23.4941 150.136 23.4941C151.299 23.4941 152.336 23.6993 153.245 24.1096C154.164 24.5102 154.942 25.0768 155.577 25.8095C156.213 26.5324 156.697 27.3872 157.029 28.3739C157.361 29.3509 157.528 30.4109 157.528 31.5539V31.8909C157.528 33.0339 157.361 34.0939 157.029 35.0708C156.697 36.0478 156.213 36.9026 155.577 37.6353C154.942 38.3582 154.169 38.9249 153.26 39.3352C152.351 39.7357 151.319 39.936 150.165 39.936C149.002 39.936 147.961 39.7357 147.041 39.3352C146.132 38.9249 145.36 38.3582 144.724 37.6353C144.089 36.9026 143.605 36.0478 143.272 35.0708C142.94 34.0939 142.774 33.0339 142.774 31.8909ZM146.308 31.5539V31.8909C146.308 32.6041 146.382 33.2782 146.528 33.9132C146.675 34.5482 146.905 35.105 147.217 35.5837C147.53 36.0624 147.931 36.4386 148.42 36.7121C148.909 36.9856 149.491 37.1224 150.165 37.1224C150.82 37.1224 151.387 36.9856 151.867 36.7121C152.355 36.4386 152.756 36.0624 153.069 35.5837C153.382 35.105 153.612 34.5482 153.758 33.9132C153.915 33.2782 153.993 32.6041 153.993 31.8909V31.5539C153.993 30.8505 153.915 30.1862 153.758 29.5609C153.612 28.9259 153.377 28.3642 153.055 27.8757C152.742 27.3872 152.341 27.0062 151.852 26.7327C151.373 26.4494 150.801 26.3077 150.136 26.3077C149.471 26.3077 148.894 26.4494 148.405 26.7327C147.926 27.0062 147.53 27.3872 147.217 27.8757C146.905 28.3642 146.675 28.9259 146.528 29.5609C146.382 30.1862 146.308 30.8505 146.308 31.5539Z" fill="white"/>
<path d="M164.025 27.0111V39.6429H160.49V23.7872H163.819L164.025 27.0111ZM163.453 31.1289L162.25 31.1143C162.25 30.0201 162.387 29.009 162.661 28.0809C162.934 27.1528 163.335 26.3468 163.863 25.6629C164.391 24.9693 165.046 24.4369 165.828 24.0657C166.62 23.6847 167.535 23.4941 168.571 23.4941C169.295 23.4941 169.954 23.6016 170.551 23.8165C171.157 24.0217 171.68 24.349 172.12 24.7984C172.57 25.2477 172.912 25.8241 173.147 26.5275C173.391 27.2309 173.513 28.0809 173.513 29.0773V39.6429H169.979V29.3851C169.979 28.6133 169.862 28.0076 169.627 27.568C169.402 27.1284 169.075 26.8157 168.644 26.6301C168.224 26.4347 167.72 26.337 167.134 26.337C166.469 26.337 165.902 26.464 165.433 26.718C164.973 26.972 164.597 27.3189 164.303 27.7585C164.01 28.1981 163.795 28.7061 163.658 29.2825C163.521 29.8589 163.453 30.4744 163.453 31.1289ZM173.293 30.191L171.636 30.5574C171.636 29.6 171.768 28.6963 172.032 27.8464C172.306 26.9867 172.702 26.2345 173.22 25.5897C173.748 24.9351 174.398 24.4222 175.171 24.051C175.943 23.6798 176.828 23.4941 177.825 23.4941C178.637 23.4941 179.36 23.6065 179.996 23.8312C180.641 24.0461 181.189 24.388 181.638 24.857C182.088 25.3259 182.43 25.9365 182.665 26.6887C182.9 27.4312 183.017 28.33 183.017 29.3851V39.6429H179.468V29.3704C179.468 28.5693 179.35 27.949 179.116 27.5094C178.891 27.0697 178.568 26.7669 178.148 26.6008C177.727 26.425 177.224 26.337 176.637 26.337C176.09 26.337 175.606 26.4396 175.185 26.6448C174.775 26.8402 174.428 27.1186 174.144 27.48C173.861 27.8317 173.645 28.2372 173.499 28.6963C173.362 29.1555 173.293 29.6537 173.293 30.191Z" fill="white"/>
<path d="M193.65 39.936C192.476 39.936 191.416 39.7455 190.467 39.3645C189.529 38.9737 188.727 38.4315 188.062 37.7379C187.407 37.0443 186.903 36.2285 186.551 35.2907C186.199 34.3528 186.023 33.3417 186.023 32.2573V31.6711C186.023 30.4304 186.204 29.3069 186.566 28.3007C186.928 27.2944 187.431 26.4347 188.077 25.7216C188.722 24.9986 189.485 24.4467 190.365 24.0657C191.244 23.6847 192.198 23.4941 193.224 23.4941C194.359 23.4941 195.351 23.6847 196.202 24.0657C197.052 24.4467 197.756 24.984 198.313 25.6776C198.88 26.3615 199.301 27.1772 199.575 28.1248C199.858 29.0725 200 30.1178 200 31.2608V32.7702H187.739V30.235H196.51V29.9566C196.49 29.3216 196.363 28.7256 196.128 28.1688C195.903 27.6119 195.556 27.1625 195.087 26.8206C194.618 26.4787 193.992 26.3077 193.21 26.3077C192.623 26.3077 192.1 26.4347 191.64 26.6887C191.191 26.933 190.814 27.2895 190.511 27.7585C190.208 28.2274 189.973 28.794 189.807 29.4583C189.651 30.1129 189.573 30.8505 189.573 31.6711V32.2573C189.573 32.9509 189.665 33.5957 189.851 34.1916C190.047 34.7778 190.33 35.2907 190.702 35.7303C191.073 36.1699 191.523 36.5167 192.051 36.7707C192.579 37.0149 193.18 37.1371 193.855 37.1371C194.706 37.1371 195.463 36.9661 196.128 36.6242C196.793 36.2822 197.37 35.7987 197.859 35.1734L199.721 36.9759C199.379 37.4741 198.934 37.9528 198.387 38.412C197.839 38.8614 197.169 39.2277 196.378 39.511C195.595 39.7943 194.686 39.936 193.65 39.936Z" fill="white"/>
</g>
</g>
</g>
<defs>
<clipPath id="clip0_2_362">
<rect width="200" height="56" fill="white" transform="translate(0 0.299805)"/>
</clipPath>
<clipPath id="clip1_2_362">
<rect width="200" height="56" fill="white" transform="translate(0 0.299805)"/>
</clipPath>
<clipPath id="clip2_2_362">
<rect width="200" height="56" fill="white" transform="translate(0 0.299805)"/>
</clipPath>
</defs>
</svg>
