<svg width="6" height="7" viewBox="0 0 6 7" fill="none" xmlns="http://www.w3.org/2000/svg">
<path d="M3 2.3402C3.8 2.3402 4.5 3.00015 4.5 3.79015C4.5 4.60015 3.8 5.25011 3 5.25011C2.2 5.25011 1.59961 4.60015 1.59961 3.79015C1.59961 3.00015 2.2 2.3402 3 2.3402ZM3 4.7401C3.5 4.7401 4 4.33015 4 3.79015C4 3.28015 3.5 2.86021 3 2.86021C2.5 2.86021 2.09961 3.28015 2.09961 3.79015C2.09961 4.33015 2.5 4.7401 3 4.7401ZM4.90039 2.29015C4.90039 2.48015 4.7 2.62999 4.5 2.62999C4.3 2.62999 4.19922 2.48015 4.19922 2.29015C4.19922 2.10015 4.3 1.95006 4.5 1.95006C4.7 1.95006 4.90039 2.10015 4.90039 2.29015ZM5.80078 2.62999C5.80078 3.09999 5.80078 4.50008 5.80078 4.97008C5.80078 5.42008 5.70039 5.81002 5.40039 6.16002C5.00039 6.48002 4.59922 6.59021 4.19922 6.61021C3.69922 6.64021 2.30078 6.64021 1.80078 6.61021C1.40078 6.59021 0.999219 6.48002 0.699219 6.16002C0.299219 5.81002 0.199219 5.42008 0.199219 4.97008C0.199219 4.50008 0.199219 3.09999 0.199219 2.62999C0.199219 2.17999 0.299219 1.77006 0.699219 1.45006C0.999219 1.12006 1.40078 1.0201 1.80078 0.990098C2.30078 0.970098 3.69922 0.970098 4.19922 0.990098C4.59922 1.0201 5.00039 1.12006 5.40039 1.45006C5.70039 1.77006 5.80078 2.17999 5.80078 2.62999ZM5.19922 5.46007C5.39922 5.10007 5.30078 4.21015 5.30078 3.79015C5.30078 3.39015 5.39922 2.50999 5.19922 2.12999C5.09922 1.88999 4.89922 1.69021 4.69922 1.60021C4.29922 1.45021 3.4 1.48009 3 1.48009C2.6 1.48009 1.70039 1.45021 1.40039 1.60021C1.10039 1.70021 0.900781 1.88999 0.800781 2.12999C0.700781 2.50999 0.699219 3.39015 0.699219 3.79015C0.699219 4.21015 0.700781 5.10007 0.800781 5.46007C0.900781 5.71007 1.10039 5.90011 1.40039 6.00011C1.70039 6.16011 2.6 6.12022 3 6.12022C3.4 6.12022 4.29922 6.16011 4.69922 6.00011C4.89922 5.90011 5.09922 5.71007 5.19922 5.46007Z" fill="white"/>
</svg>
