<svg width="6" height="7" viewBox="0 0 6 7" fill="none" xmlns="http://www.w3.org/2000/svg">
<path d="M1.5 6.21997H0.300781V2.43994H1.5V6.21997ZM0.900391 1.93994C0.500391 1.93994 0.199219 1.61999 0.199219 1.23999C0.199219 0.87999 0.500391 0.580078 0.900391 0.580078C1.30039 0.580078 1.59961 0.87999 1.59961 1.23999C1.59961 1.61999 1.30039 1.93994 0.900391 1.93994ZM5.90039 6.21997H4.69922V4.38989C4.69922 3.94989 4.69961 3.38989 4.09961 3.38989C3.49961 3.38989 3.40039 3.8601 3.40039 4.3501V6.21997H2.19922V2.43994H3.30078V2.95996H3.40039C3.50039 2.66996 3.9 2.36011 4.5 2.36011C5.7 2.36011 5.90039 3.1399 5.90039 4.1499V6.21997Z" fill="white"/>
</svg>
