<svg width="8" height="6" viewBox="0 0 8 6" fill="none" xmlns="http://www.w3.org/2000/svg">
<path d="M6.5 1.47998C6.5 1.53998 6.5 1.59991 6.5 1.65991C6.5 3.40991 5.20078 5.41992 2.80078 5.41992C2.00078 5.41992 1.29922 5.21008 0.699219 4.83008C0.799219 4.84008 0.899609 4.8501 1.09961 4.8501C1.69961 4.8501 2.19922 4.64003 2.69922 4.28003C2.09922 4.27003 1.6 3.89011 1.5 3.36011C1.6 3.38011 1.59922 3.38989 1.69922 3.38989C1.79922 3.38989 1.99961 3.36009 2.09961 3.34009C1.49961 3.21009 1 2.68004 1 2.04004V2.02002C1.2 2.13002 1.39961 2.17994 1.59961 2.18994C1.19961 1.94994 1 1.54009 1 1.09009C1 0.840088 1.09922 0.609922 1.19922 0.419922C1.79922 1.21992 2.80039 1.75006 3.90039 1.81006C3.90039 1.71006 3.90039 1.61001 3.90039 1.51001C3.90039 0.77001 4.49922 0.179932 5.19922 0.179932C5.59922 0.179932 5.89922 0.330098 6.19922 0.600098C6.49922 0.530098 6.8 0.42002 7 0.27002C6.9 0.59002 6.70039 0.84 6.40039 1C6.70039 0.98 6.99922 0.900049 7.19922 0.800049C6.99922 1.07005 6.8 1.28998 6.5 1.47998Z" fill="white"/>
</svg>
